<svg width="53" height="36" viewBox="0 0 53 36" fill="none" xmlns="http://www.w3.org/2000/svg">
<g clip-path="url(#clip0_36_3958)">
<path d="M24.328 0.164074C24.2723 0.26059 20.9215 6.51474 16.8746 14.0622L9.51401 27.7769L9.48617 19.052L9.4676 10.3271H4.7338H0V23.1249V35.9131L5.68056 35.8842C11.3518 35.8552 11.3704 35.8552 11.9737 35.6332C14.2664 34.7839 16.5497 32.6799 18.1462 29.9389C18.3412 29.6107 18.5268 29.3405 18.5546 29.3405C18.5825 29.3501 19.3807 30.8268 20.3275 32.6316L22.0447 35.9228L25.4326 35.8842C28.672 35.8456 28.8483 35.8359 29.4331 35.6236C31.3638 34.9287 33.3687 33.2204 34.928 30.9619C35.4293 30.2284 39.2163 23.7523 50.3732 4.51689L53 0H47.9135H42.8363L34.8538 13.9464C30.4634 21.6097 26.8527 27.8928 26.8249 27.8928C26.797 27.8928 26.0173 26.3003 25.0799 24.3603L23.3813 20.8279L29.331 10.4525C32.5983 4.74852 35.2715 0.0579071 35.2715 0.0386047C35.2715 0.0193024 32.8303 0 29.8415 0C24.7736 0 24.4116 0.00965118 24.328 0.164074Z" fill="url(#paint0_linear_36_3958)"/>
</g>
<defs>
<linearGradient id="paint0_linear_36_3958" x1="26.5" y1="35.9228" x2="26.5" y2="0" gradientUnits="userSpaceOnUse">
<stop stop-color="#6D03F5"/>
<stop offset="1" stop-color="#40028F"/>
</linearGradient>
<clipPath id="clip0_36_3958">
<rect width="53" height="36" fill="white"/>
</clipPath>
</defs>
</svg>
